<svg width="24" height="28" viewBox="0 0 24 28" fill="none" xmlns="http://www.w3.org/2000/svg">
<path d="M8.59433 0.00844831C8.43603 0.0316844 8.28486 0.0890236 8.15152 0.176398C8.15152 0.176398 6.77183 1.03337 5.28852 1.96032C3.80522 2.8862 2.15504 3.90681 1.77767 4.11352C1.75439 4.12349 1.73147 4.13426 1.70895 4.14582C0.339076 4.98018 0.0544122 6.34315 0.00533215 7.10754C0.00206015 7.14306 0.00533215 7.17213 0.00533215 7.20981C-0.00666519 7.49619 0.00533215 7.68029 0.00533215 7.68029V21.7439C0.00533215 23.7873 2.41898 24.7702 4.70938 24.7702C5.47285 24.7702 6.23631 24.6486 6.89071 24.4332C7.32698 24.2179 7.64 23.7873 7.64 23.3566V12.0524C7.64 9.57618 8.18533 8.41345 9.82133 7.44451C10.2576 7.22919 14.8319 4.11244 14.8319 4.11244C15.05 3.89712 15.2747 3.46002 15.2747 3.13704V3.03584C15.2747 2.6052 15.0565 2.27576 14.7293 2.06044C14.4021 1.84512 13.9659 1.84512 13.6387 2.06044C13.5296 2.1681 6.87653 6.58969 5.45867 7.34331C4.0408 8.20459 2.71782 8.41237 2.39062 7.98173C2.28919 7.88161 2.20084 7.57478 2.18667 7.27549V7.20766C2.18776 6.91483 2.2641 6.36361 2.86833 5.99649C3.48129 5.65951 5.00277 4.70026 6.48171 3.77654C7.10666 3.38574 7.1841 3.34375 7.67381 3.03584C7.73828 3.29885 7.90071 3.52825 8.12878 3.67838C8.35685 3.8285 8.63383 3.88835 8.90458 3.846C9.17534 3.80365 9.42 3.66221 9.58988 3.44984C9.75976 3.23747 9.8424 2.96974 9.82133 2.69994V1.08505C9.82255 0.931593 9.79052 0.779656 9.72739 0.63942C9.66426 0.499184 9.57149 0.373891 9.4553 0.271939C9.3391 0.169987 9.20217 0.0937331 9.05368 0.0482891C8.90519 0.00284518 8.74858 -0.0107386 8.59433 0.00844831ZM17.3197 3.77654C17.1462 3.80501 16.9823 3.87445 16.842 3.97894C16.842 3.97894 11.3515 7.62538 10.4005 8.25088C10.3889 8.26212 10.3777 8.27361 10.3667 8.28534C9.57702 8.86993 9.10913 9.56541 8.90081 10.2017C8.78409 10.5606 8.72664 10.9358 8.73067 11.3127V11.6497C8.72909 11.6831 8.72909 11.7165 8.73067 11.7498V24.7702C8.73067 26.8157 11.117 28 13.2984 28C14.28 28 15.1656 27.7911 15.82 27.3605C17.1288 26.6069 23.4547 21.7428 23.4547 21.7428C23.7819 21.5275 24 21.2239 24 20.9009V6.90514C24 6.36684 23.7884 6.04386 23.3521 5.82854C23.0249 5.61322 22.4872 5.71442 22.16 5.92974C20.415 7.22166 15.7175 10.8692 14.6268 11.5151C13.0999 12.3764 11.6613 12.5917 11.116 12.0534C10.8978 11.8381 10.912 11.6357 10.912 11.3127C10.9185 11.1276 10.9393 10.9682 10.9807 10.8412C11.0418 10.6539 11.1661 10.4235 11.6275 10.0682C11.6493 10.051 11.6384 10.052 11.6613 10.0348C12.4498 9.51481 14.8613 7.89238 16.434 6.83731C16.5231 7.07327 16.6932 7.27093 16.9147 7.39591C17.1362 7.52089 17.395 7.56529 17.6462 7.52139C17.8974 7.47748 18.1251 7.34804 18.2896 7.15559C18.4541 6.96314 18.5451 6.71985 18.5467 6.46804V4.85314C18.5479 4.69969 18.5159 4.54775 18.4527 4.40751C18.3896 4.26728 18.2968 4.14198 18.1806 4.04003C18.0644 3.93808 17.9275 3.86183 17.779 3.81638C17.6305 3.77094 17.4739 3.75736 17.3197 3.77654ZM21.8187 11.6497V13.8029L16.3653 17.9736V15.8204L21.8187 11.6497Z" fill="#F8F8F8"/>
</svg>
