<svg width="32" height="32" viewBox="0 0 32 32" fill="none" xmlns="http://www.w3.org/2000/svg">
<path d="M21.1556 0H10.8444C9.90222 0 8.99556 0.373333 8.32 1.04889L1.03111 8.33778C0.373333 8.99556 0 9.90222 0 10.8444V21.1556C0 22.0978 0.373333 23.0044 1.04889 23.6622L8.33778 30.9511C8.99556 31.6267 9.90222 32 10.8444 32H21.1556C22.0978 32 23.0044 31.6267 23.6622 30.9511L30.9511 23.6622C31.6267 23.0044 32 22.0978 32 21.1556V10.8444C32 9.90222 31.6267 8.99556 30.9511 8.33778L23.6622 1.04889C23.0044 0.373333 22.0978 0 21.1556 0ZM22.2933 22.2933C22.1289 22.4581 21.9335 22.5889 21.7184 22.6781C21.5034 22.7673 21.2728 22.8132 21.04 22.8132C20.8072 22.8132 20.5766 22.7673 20.3616 22.6781C20.1465 22.5889 19.9511 22.4581 19.7867 22.2933L16 18.5067L12.2311 22.2756C12.0665 22.4401 11.8711 22.5707 11.6561 22.6598C11.441 22.7489 11.2105 22.7947 10.9778 22.7947C10.745 22.7947 10.5145 22.7489 10.2995 22.6598C10.0844 22.5707 9.88904 22.4401 9.72444 22.2756C9.55985 22.111 9.42929 21.9156 9.34022 21.7005C9.25114 21.4855 9.2053 21.255 9.2053 21.0222C9.2053 20.7895 9.25114 20.559 9.34022 20.3439C9.42929 20.1289 9.55985 19.9335 9.72444 19.7689L13.4933 16L9.70667 12.2311C9.54208 12.0665 9.41152 11.8711 9.32244 11.6561C9.23336 11.441 9.18752 11.2105 9.18752 10.9778C9.18752 10.745 9.23336 10.5145 9.32244 10.2995C9.41152 10.0844 9.54208 9.88904 9.70667 9.72444C9.87126 9.55985 10.0667 9.42929 10.2817 9.34022C10.4967 9.25114 10.7272 9.2053 10.96 9.2053C11.1928 9.2053 11.4233 9.25114 11.6383 9.34022C11.8533 9.42929 12.0487 9.55985 12.2133 9.72444L16 13.4933L19.7689 9.72444C19.9335 9.55985 20.1289 9.42929 20.3439 9.34022C20.559 9.25114 20.7895 9.2053 21.0222 9.2053C21.255 9.2053 21.4855 9.25114 21.7005 9.34022C21.9156 9.42929 22.111 9.55985 22.2756 9.72444C22.4401 9.88904 22.5707 10.0844 22.6598 10.2995C22.7489 10.5145 22.7947 10.745 22.7947 10.9778C22.7947 11.2105 22.7489 11.441 22.6598 11.6561C22.5707 11.8711 22.4401 12.0665 22.2756 12.2311L18.5067 16L22.2756 19.7689C22.9867 20.4622 22.9867 21.6 22.2933 22.2933Z" fill="#F8F8F8"/>
</svg>
