<svg width="51" height="51" viewBox="0 0 51 51" fill="none" xmlns="http://www.w3.org/2000/svg">
<path d="M43.1977 31.2376L48.9416 37.2176L23.684 49.8858C23.684 49.8858 20.3793 51.5382 18.8056 48.9416C12.5108 38.7126 43.1977 31.2376 43.1977 31.2376Z" fill="#256382"/>
<path d="M22.9758 42.4108C22.9758 42.4108 18.1761 44.2205 19.0416 47.6039C19.9858 51.1447 23.8413 49.0202 23.8413 49.0202L47.84 37.2176C47.84 37.2176 46.5024 33.4408 48.9416 30.9229L22.9758 42.4108Z" fill="#D9E3E8"/>
<path d="M27.0673 7.0029L50.0431 30.6868L22.8971 41.9387L5.50787 13.1403L27.0673 7.0029Z" fill="#42ADE2"/>
<path d="M47.7613 33.5195L31.7097 40.4437L47.4466 32.8113L47.7613 33.5195ZM47.5252 35.5653L30.4508 43.0403L47.2105 34.8571L47.5252 35.5653ZM47.6826 36.7455L25.8871 46.7384L47.3679 36.0374L47.6826 36.7455Z" fill="#94989B"/>
<path d="M18.7268 48.8629C16.0516 42.9616 22.8971 41.9387 22.8971 41.9387L5.50788 13.1403C5.50788 13.1403 1.57367 13.0616 1.57367 17.3892C1.57367 19.1989 2.36051 20.5366 2.36051 20.5366L18.7268 48.8629Z" fill="#428BC1"/>
<path d="M6.84557 25.3363L1.10162 31.3163L26.3592 43.9845C26.3592 43.9845 29.664 45.6368 31.2377 43.0402C37.5324 32.8113 6.84557 25.3363 6.84557 25.3363Z" fill="#547725"/>
<path d="M26.9887 36.5094C26.9887 36.5094 31.7885 38.3192 30.9229 41.7026C29.9787 45.2434 26.2019 43.1189 26.2019 43.1189L2.2032 31.3163C2.2032 31.3163 3.54083 27.5394 1.10162 25.0215L26.9887 36.5094Z" fill="#D9E3E8"/>
<path d="M22.9758 1.10159L0 24.7855L27.146 36.0374L44.5352 7.23896L22.9758 1.10159Z" fill="#83BF4F"/>
<path d="M2.51786 26.91L18.2547 34.5424L2.20312 27.6182L2.51786 26.91ZM2.8326 28.9558L19.5136 37.1389L2.43918 29.6639L2.8326 28.9558ZM2.67523 30.1361L24.0773 40.8371L2.28181 30.8442L2.67523 30.1361Z" fill="#94989B"/>
<path d="M31.3163 42.9616C33.9916 37.0603 27.1461 36.0374 27.1461 36.0374L44.5353 7.23896C44.5353 7.23896 48.4695 7.16027 48.4695 11.4879C48.4695 13.2976 47.6826 14.6353 47.6826 14.6353L31.3163 42.9616Z" fill="#699635"/>
<path d="M44.6139 20.4579L49.4137 25.4937L28.0902 36.116C28.0902 36.116 25.2576 37.4537 23.92 35.3292C18.7268 26.7526 44.6139 20.4579 44.6139 20.4579Z" fill="#962C2C"/>
<path d="M27.5395 29.9C27.5395 29.9 23.4479 31.395 24.2347 34.3063C25.0216 37.2963 28.2476 35.4866 28.2476 35.4866L48.4694 25.4937C48.4694 25.4937 47.3679 22.3463 49.4137 20.2218L27.5395 29.9Z" fill="#D9E3E8"/>
<path d="M31.0016 0L50.3579 19.9858L27.4608 29.5066L12.7468 5.19316L31.0016 0Z" fill="#ED4C5C"/>
<path d="M31.5523 4.56366L35.3292 8.73392L21.4021 14.0058L18.0974 8.65524L31.5523 4.56366Z" fill="white"/>
<path d="M48.4695 22.425L34.9358 28.1689L48.1547 21.7168L48.4695 22.425ZM48.3121 24.156L33.8342 30.3721L47.9974 23.4479L48.3121 24.156ZM48.4695 25.1002L30.0574 33.5195L48.076 24.3921L48.4695 25.1002Z" fill="#94989B"/>
<path d="M23.9987 35.3292C21.7956 30.3721 27.5395 29.5066 27.5395 29.5066L12.7469 5.19316C12.7469 5.19316 9.36346 5.11448 9.36346 8.73395C9.36346 10.2289 9.99294 11.4092 9.99294 11.4092L23.9987 35.3292Z" fill="#C94747"/>
</svg>
