<svg width="32" height="29" viewBox="0 0 32 29" fill="none" xmlns="http://www.w3.org/2000/svg">
<path fill-rule="evenodd" clip-rule="evenodd" d="M5.29946 12.4189C9.96814 4.1391 12.3025 0 16 0C19.6959 0 22.0319 4.1391 26.7005 12.4189L27.2829 13.4493C31.1628 20.3291 33.1036 23.769 31.35 26.2842C29.5965 28.7993 25.2574 28.7993 16.5824 28.7993H15.4176C6.74262 28.7993 2.40353 28.7993 0.649969 26.2842C-1.10359 23.769 0.837165 20.3291 4.71707 13.4493L5.29946 12.4189ZM16 6.79984C16.3183 6.79984 16.6235 6.92626 16.8485 7.1513C17.0735 7.37634 17.2 7.68156 17.2 7.99981V15.9996C17.2 16.3179 17.0735 16.6231 16.8485 16.8481C16.6235 17.0732 16.3183 17.1996 16 17.1996C15.6817 17.1996 15.3765 17.0732 15.1515 16.8481C14.9265 16.6231 14.8 16.3179 14.8 15.9996V7.99981C14.8 7.68156 14.9265 7.37634 15.1515 7.1513C15.3765 6.92626 15.6817 6.79984 16 6.79984ZM16 22.3995C16.4243 22.3995 16.8313 22.2309 17.1313 21.9308C17.4314 21.6308 17.6 21.2238 17.6 20.7995C17.6 20.3752 17.4314 19.9682 17.1313 19.6682C16.8313 19.3681 16.4243 19.1995 16 19.1995C15.5757 19.1995 15.1687 19.3681 14.8687 19.6682C14.5686 19.9682 14.4 20.3752 14.4 20.7995C14.4 21.2238 14.5686 21.6308 14.8687 21.9308C15.1687 22.2309 15.5757 22.3995 16 22.3995Z" fill="#F8F8F8"/>
</svg>
