<svg width="181" height="141" viewBox="0 0 181 141" fill="none" xmlns="http://www.w3.org/2000/svg">
<path d="M1.55859 84.6685L95.7024 139.017C97.1156 139.831 98.7192 140.254 100.35 140.245C101.98 140.236 103.579 139.795 104.983 138.966L179.833 94.6301C180.189 94.4194 180.483 94.1198 180.688 93.7608C180.892 93.4018 181 92.9957 181 92.5825C181 92.1693 180.892 91.7633 180.688 91.4042C180.483 91.0452 180.189 90.7456 179.833 90.5349C163.192 80.947 93.0815 40.5426 81.6763 34.0773C81.2047 33.805 80.6698 33.6617 80.1253 33.6617C79.5807 33.6617 79.0458 33.805 78.5742 34.0773L1.53811 79.2987C1.06831 79.573 0.678894 79.966 0.40893 80.4382C0.138967 80.9105 -0.00205179 81.4455 2.25586e-05 81.9895C0.00209691 82.5335 0.147191 83.0674 0.420748 83.5376C0.694306 84.0078 1.08671 84.3978 1.55859 84.6685Z" fill="#DAF2E9"/>
<path d="M94.8169 115.49L75.6769 126.752C75.6769 126.752 78.4207 128.871 89.3856 135.383L93.9262 138.004L111.331 124.003" fill="url(#paint0_linear_4_109)"/>
<path d="M143.555 87.1154L116.608 103.302C116.608 103.302 124.686 107.909 135.651 114.441L148.449 103.803L158.82 94.3844" fill="url(#paint1_linear_4_109)"/>
<path d="M30.44 73.4425L6.52908 86.7878C6.52908 86.7878 47.9931 111.282 58.9427 117.799L83.5908 102.442" fill="url(#paint2_linear_4_109)"/>
<path d="M57.617 0.511932L65.6282 4.78631L43.7496 25.3904L24.456 31.4513L18.0367 22.7387" fill="#FFE8BC"/>
<path d="M27.4097 27.0642L19.9717 22.8308L57.617 0.511902L56.7314 0L18.0367 22.7387V80.8088L26.478 85.6104L29.6979 82.2524" fill="#68E1FD"/>
<path opacity="0.42" d="M27.4097 27.0642L19.9717 22.8308L57.617 0.511902L56.7314 0L18.0367 22.7387V80.8088L26.478 85.6104L29.6979 82.2524" fill="#1371A5"/>
<path d="M65.6282 4.78622L26.478 27.6119V85.6104L66.2476 61.8428L65.6282 4.78622Z" fill="#68E1FD"/>
<path d="M27.9573 23.8035L30.3479 25.3187V37.6863L31.8631 35.741L32.9279 36.944V23.8496L30.696 22.2422L27.9573 23.8035Z" fill="#E85858"/>
<path d="M31.9605 86.0865C31.7711 86.0865 30.0818 85.4108 31.5049 84.3205C32.4489 83.5867 33.437 82.9114 34.4637 82.2985" fill="#E27825"/>
<path d="M31.9604 77.1231C31.9604 77.1231 33.3835 82.3906 31.9604 85.2009L51.3052 96.5754L70.44 107.648V99.4574" fill="#FFE8BC"/>
<path d="M31.3052 76.3041C31.3496 76.6692 31.3957 77.0344 31.4434 77.3995L70.4248 99.4625V107.653L31.4844 84.9245V85.8971L71.9502 109.317V98.1572L31.3052 76.3041Z" fill="#E27825"/>
<path d="M31.5304 76.4474L71.7352 99.483L128.147 66.363L88.8071 43.783C88.212 43.4415 87.5369 43.264 86.8508 43.2685C86.1646 43.273 85.4919 43.4593 84.9013 43.8086L31.5253 75.4441C31.4386 75.4962 31.3669 75.57 31.3173 75.6582C31.2677 75.7464 31.2419 75.846 31.2424 75.9472C31.243 76.0484 31.2698 76.1477 31.3203 76.2354C31.3708 76.3231 31.4432 76.3962 31.5304 76.4474Z" fill="#FDBA45"/>
<path d="M71.9399 109.311C71.9399 109.311 128.316 76.1095 128.147 75.9509C127.978 75.7922 128.147 66.3425 128.147 66.3425L71.7454 99.4625L71.9399 109.311Z" fill="#E27825"/>
<path d="M31.5253 75.444C31.3601 75.5631 31.2222 75.7159 31.1207 75.8925C31.0192 76.069 30.9564 76.2652 30.9367 76.4678C30.8701 77.1538 31.6021 77.4916 31.8581 77.6298" fill="#FDBA45"/>
<path d="M146.519 124.131C146.512 124.087 146.489 124.047 146.454 124.018C146.42 123.989 146.377 123.973 146.332 123.973C146.287 123.973 146.244 123.989 146.21 124.018C146.175 124.047 146.153 124.087 146.145 124.131" fill="#7A9F36"/>
<path d="M136.26 83.5373L146.713 89.0402L147.026 91.6202L135.964 85.3801" fill="#E27623"/>
<path d="M135.835 79.3448L131.53 94.8708L132.319 95.3264C132.523 95.2192 132.72 95.0978 132.907 94.9629C133.138 94.7837 138.492 78.6435 138.492 78.6435" fill="#E27623"/>
<path d="M145.766 76.2939L148.705 85.462L148.454 103.803L147.794 104.239L146.882 103.67L146.207 85.4518L143.555 76.2939" fill="#E27623"/>
<path d="M134.228 75.1933C134.228 75.1933 133.901 77.2409 134.602 78.3517C135.303 79.4625 137.161 76.6727 137.161 76.6727" fill="#FFB469"/>
<path d="M143.97 64.1106L143.555 71.5383L145.5 72.5468L145.864 64.5867" fill="#CA6B00"/>
<path d="M156.194 69.5777L157.504 79.6161L158.825 94.3844L157.975 94.8912L157.131 94.3588L155.247 79.8464L153.982 69.5777" fill="#E27623"/>
<path d="M154.873 70.8318C155.421 71.0008 156.598 70.1357 156.951 69.5777C158.881 66.5421 158.323 62.4111 154.853 60.5017C153.317 59.6519 151.725 58.8022 150.194 57.9422C148.833 57.1641 147.394 56.5037 146.099 55.6591C145.928 55.5397 145.744 55.4385 145.551 55.3571C145.192 55.2609 144.812 55.2738 144.461 55.3941C144.109 55.5144 143.801 55.7368 143.576 56.0328" fill="#FFB469"/>
<path d="M155.017 70.6988C155.948 70.668 156.481 69.4344 156.752 68.7075C157.504 66.7162 157.653 62.9281 155.385 61.7917C155.342 61.7726 155.305 61.7427 155.277 61.7051C155.25 61.6674 155.232 61.6232 155.226 61.5767L150.87 59.0632L147.502 57.118C146.913 56.7802 146.355 56.3911 145.766 56.0481C145.178 55.7052 144.599 55.311 143.949 55.7C143.299 56.0891 143.14 56.9337 143.028 57.6862C142.734 59.4218 142.825 61.2007 143.294 62.8974C143.7 63.976 144.499 64.861 145.531 65.375L148.659 67.1871L154.459 70.5349C154.553 70.5944 154.654 70.6409 154.761 70.6732C154.844 70.6944 154.93 70.703 155.017 70.6988Z" fill="#FCBD4C"/>
<path d="M155.651 78.7407L155.83 78.8431C156.321 79.0845 156.762 79.4162 157.131 79.8208C158.011 80.9265 157.161 82.1858 156.286 82.9588C153.926 85.0576 150.348 86.7725 147.149 85.9995C144.379 85.2538 141.738 84.0923 139.316 82.5544C137.315 81.3514 134.812 79.8976 134.29 77.4354C134.198 76.8846 134.236 76.3201 134.402 75.7869C134.567 75.2536 134.855 74.7664 135.242 74.364C140.263 68.5436 147.333 74.0056 152.298 76.8569L155.651 78.7407Z" fill="#FFB469"/>
<path d="M157.392 78.9659C157.54 79.6656 157.575 80.3847 157.494 81.0954C157.164 81.8715 156.674 82.5692 156.056 83.143C155.472 83.614 155.82 80.3276 155.82 80.3276" fill="#FFB469"/>
<path d="M155.651 77.3433L155.83 77.4456C156.321 77.687 156.762 78.0187 157.131 78.4234C158.011 79.5291 157.161 80.7884 156.286 81.5613C153.926 83.6601 150.348 85.375 147.149 84.602C144.379 83.8564 141.738 82.6948 139.316 81.1569C137.315 79.954 134.812 78.5002 134.29 76.0379C134.198 75.4872 134.236 74.9227 134.402 74.3894C134.567 73.8561 134.855 73.3689 135.242 72.9665C140.263 67.1462 147.333 72.6082 152.298 75.4595L155.651 77.3433Z" fill="#FCBD4C"/>
<path d="M27.9368 70.4018C27.7474 70.4018 26.0581 69.7261 27.4812 68.6357C28.4253 67.902 29.4134 67.2267 30.44 66.6137" fill="#9A433A"/>
<path d="M27.9369 61.4282C27.9369 61.4282 29.36 66.6957 27.9369 69.506L47.2817 80.8805L66.4166 91.9529V83.7625" fill="#FFE8BC"/>
<path d="M27.297 60.6194C27.3413 60.9846 27.3874 61.3498 27.4352 61.7149L66.4165 83.7779V91.9683L27.4659 69.2348V70.2074L67.9317 93.6269V82.4725L27.297 60.6194Z" fill="#9A433A"/>
<path d="M27.512 60.7627L67.7168 83.7983L124.128 50.6782L84.7887 28.0982C84.1935 27.7568 83.5185 27.5793 82.8323 27.5838C82.1462 27.5883 81.4735 27.7746 80.8829 28.1238L27.5069 59.7543C27.419 59.8061 27.3462 59.88 27.2958 59.9688C27.2454 60.0575 27.2192 60.1579 27.2197 60.2599C27.2202 60.362 27.2475 60.4621 27.2988 60.5503C27.3501 60.6385 27.4236 60.7118 27.512 60.7627Z" fill="#F26250"/>
<path d="M67.9215 93.6268C67.9215 93.6268 124.297 60.4044 124.128 60.2662C123.959 60.128 124.128 50.6578 124.128 50.6578L67.7167 83.7778L67.9215 93.6268Z" fill="#9A433A"/>
<path d="M27.5069 59.7543C27.3417 59.8733 27.2037 60.0262 27.1022 60.2028C27.0007 60.3793 26.938 60.5754 26.9182 60.7781C26.8517 61.4641 27.5837 61.8019 27.8397 61.9401" fill="#F26250"/>
<path d="M61.062 84.7198L60.6525 92.1474L62.6438 90.5042L64.1641 94.2974L64.7784 86.6701L61.062 84.7198Z" fill="#2AE400"/>
<path d="M97.9497 118.341C97.6051 118.34 97.2618 118.301 96.9259 118.224C95.7205 117.955 94.6211 117.336 93.7652 116.446C92.9094 115.555 92.335 114.432 92.114 113.217C92.027 112.409 92.0475 110.1 92.0782 108.303C92.0825 108.034 92.1552 107.771 92.2896 107.538C92.4239 107.305 92.6154 107.11 92.8459 106.972C93.0765 106.834 93.3385 106.756 93.6072 106.747C93.876 106.738 94.1425 106.798 94.3817 106.921L102.388 111.41L102.26 111.922C102.26 111.922 102.152 112.383 101.886 113.97C101.717 114.994 101.236 116.785 99.8386 117.722C99.2849 118.112 98.627 118.328 97.9497 118.341ZM93.6804 108.155C93.6479 108.154 93.616 108.163 93.5883 108.18C93.5618 108.195 93.5398 108.216 93.5245 108.243C93.5092 108.269 93.5011 108.298 93.5013 108.329C93.4552 110.806 93.4654 112.49 93.5269 113.064C93.7155 113.986 94.1668 114.833 94.8262 115.504C95.4855 116.176 96.325 116.642 97.2433 116.847C97.5527 116.937 97.8778 116.961 98.1972 116.917C98.5166 116.873 98.8231 116.762 99.0964 116.591C100.079 115.925 100.432 114.4 100.535 113.77C100.663 112.987 100.76 112.465 100.821 112.132L93.7572 108.175C93.7335 108.162 93.7073 108.155 93.6804 108.155Z" fill="#E27623"/>
<path d="M109.365 124.571C109.021 124.57 108.677 124.53 108.341 124.453C107.136 124.185 106.037 123.566 105.181 122.676C104.325 121.785 103.75 120.662 103.529 119.447C103.458 118.787 103.448 117.272 103.488 114.84C103.493 114.527 103.574 114.22 103.726 113.947C103.878 113.674 104.095 113.442 104.359 113.274C104.556 113.151 104.782 113.082 105.015 113.073C105.247 113.064 105.478 113.115 105.685 113.222L113.814 117.666L113.686 118.178C113.686 118.178 113.578 118.638 113.312 120.225C113.143 121.249 112.662 123.041 111.264 123.977C110.705 124.361 110.043 124.567 109.365 124.571ZM105.086 114.466C105.032 114.514 104.988 114.572 104.958 114.637C104.928 114.702 104.912 114.773 104.912 114.845C104.86 117.789 104.912 118.894 104.942 119.299C105.131 120.22 105.582 121.068 106.242 121.739C106.901 122.41 107.74 122.877 108.659 123.082C108.968 123.172 109.293 123.196 109.613 123.152C109.932 123.108 110.238 122.997 110.512 122.826C111.495 122.16 111.848 120.635 111.95 120.005C112.078 119.227 112.175 118.71 112.237 118.372L105.086 114.466Z" fill="#E27623"/>
<path d="M113.389 118.618L112.698 117.399L122.936 111.451C123.776 110.972 124.769 110.84 125.705 111.083C126.072 111.214 126.405 111.425 126.682 111.699C126.959 111.973 127.172 112.304 127.307 112.67L126.012 113.217C125.952 113.036 125.854 112.87 125.723 112.731C125.592 112.592 125.432 112.484 125.255 112.414C124.704 112.302 124.131 112.393 123.642 112.67L113.389 118.618Z" fill="#E27623"/>
<path d="M93.8801 108.078L93.1737 106.859L103.412 100.911C104.252 100.432 105.245 100.3 106.181 100.543C106.548 100.674 106.881 100.885 107.158 101.159C107.435 101.433 107.648 101.764 107.783 102.13L106.488 102.677C106.429 102.497 106.33 102.331 106.2 102.193C106.071 102.054 105.912 101.945 105.736 101.874C105.182 101.759 104.605 101.85 104.113 102.13L93.8801 108.078Z" fill="#E27623"/>
<path d="M101.288 112.412L101.961 111.175L105.72 113.22L105.047 114.457L101.288 112.412Z" fill="#E27623"/>
<path d="M95.5386 80.5733L97.4634 79.6366C97.4634 79.6366 97.617 77.9473 96.9515 77.589C96.286 77.2306 95.5386 80.5733 95.5386 80.5733Z" fill="#196132"/>
<path d="M100.222 75.7615C100.222 75.7615 100.489 79.913 100.775 80.3379C101.062 80.7628 104.753 82.6978 105.055 83.4093C105.357 84.1209 100.96 83.3479 99.4853 82.9844C98.011 82.621 96.6801 81.8941 96.6289 81.3515C96.5777 80.8089 97.1408 78.019 96.6289 78.0804C96.117 78.1418 95.5386 80.5529 95.5386 80.5529L94.269 79.8158L97.0947 70.0896" fill="#196132"/>
<path d="M104.287 76.4372L106.212 75.5004C106.212 75.5004 106.365 73.8111 105.7 73.4528C105.034 73.0945 104.287 76.4372 104.287 76.4372Z" fill="#196132"/>
<path d="M108.971 71.6304C108.971 71.6304 109.237 75.7819 109.524 76.2068C109.81 76.6317 113.501 78.5667 113.803 79.2782C114.105 79.9898 109.708 79.2168 108.234 78.8534C106.759 78.4899 105.429 77.763 105.377 77.2204C105.326 76.6778 105.889 73.8879 105.377 73.9493C104.865 74.0108 104.287 76.4218 104.287 76.4218L103.012 75.6642L105.838 65.9381" fill="#196132"/>
<path d="M94.6582 40.4863C93.9825 41.1364 92.4007 50.1766 93.4553 54.5175C94.5098 58.8585 105.055 60.6603 105.055 60.6603L102.577 71.7225C102.577 71.7225 106.616 74.794 110.476 73.5244C111.868 73.074 115.042 57.1897 113.814 54.9782C112.585 52.7668 98.4565 45.1088 98.4565 45.1088" fill="#FFF0D7"/>
<path d="M86.3346 43.783C85.6589 44.4331 83.7136 49.5163 86.3346 55.7563C88.0648 59.8516 97.4736 62.7796 97.4736 62.7796L94.2691 75.0294C94.2691 75.0294 98.482 78.5206 102.168 76.8313C105.853 75.1421 106.887 60.0921 105.659 57.891C104.43 55.6898 92.1907 47.8884 92.1907 47.8884" fill="#FFF0D7"/>
<path d="M89.662 31.6253C89.662 31.6253 82.6848 34.5227 84.6351 44.4229C86.007 51.3847 92.9074 52.1526 92.9074 52.1526C92.9074 52.1526 97.4275 49.3064 96.9207 48.3543L90.7779 45.1549L97.7347 41.6381L102.756 46.9056L106.34 44.1106C106.34 44.1106 101.159 35.9816 98.9069 32.6235C96.6546 29.2655 89.662 31.6253 89.662 31.6253Z" fill="#FF9A22"/>
<path d="M109.682 43.1789L109.053 42.5646Z" fill="#FFF7F0"/>
<path d="M98.7073 48.431L97.4788 47.443C97.4788 47.443 100.217 44.9398 103.954 45.2674C104.94 43.7502 106.419 42.62 108.142 42.0681L109.677 43.1789" fill="#FFE8BC"/>
<path d="M97.4787 47.4431L96.506 54.5534L98.7021 55.7563L100.432 49.2603" fill="#FFE8BC"/>
<path d="M98.7073 48.431L97.6835 55.1625L98.7073 55.7563C98.7073 55.7563 109.155 50.0128 109.053 49.9104C108.95 49.808 109.682 43.184 109.682 43.184" fill="#68E1FD"/>
<path d="M108.925 42.6363L98.7021 48.431L99.6645 48.9736L109.682 43.1789L108.925 42.6363Z" fill="#68E1FD"/>
<path opacity="0.42" d="M108.925 42.6363L98.7021 48.431L99.6645 48.9736L109.682 43.1789L108.925 42.6363Z" fill="#1371A5"/>
<path d="M100.018 49.3678C100.042 49.2736 100.042 49.1747 100.016 49.0807C99.9909 48.9868 99.9413 48.9011 99.8725 48.8323C99.8036 48.7635 99.718 48.7139 99.6241 48.6884C99.5301 48.6629 99.4311 48.6624 99.337 48.687C98.5411 48.9807 97.6973 49.123 96.8491 49.1067C96.7582 49.1037 96.6681 49.1249 96.588 49.1682C95.7909 49.9691 94.9067 50.6782 93.9518 51.2823L94.2384 51.4154C94.6177 52.1585 95.0524 52.8721 95.5386 53.55C95.6492 53.7069 95.7956 53.8352 95.9656 53.9242C96.1357 54.0132 96.3245 54.0604 96.5164 54.0619C96.6427 54.1574 96.7762 54.243 96.9157 54.3179C97.1158 54.429 97.3447 54.4777 97.5728 54.4576C97.8009 54.4376 98.0177 54.3497 98.1954 54.2053C98.3278 54.2888 98.4873 54.3181 98.6408 54.2872C98.7405 54.3386 98.853 54.3601 98.9646 54.3492C99.0763 54.3383 99.1825 54.2954 99.2704 54.2258C99.5216 54.078 99.7053 53.8382 99.7827 53.5573C99.8601 53.2764 99.8251 52.9763 99.685 52.7208C99.8631 52.5165 99.9646 52.2567 99.9721 51.9859C99.9796 51.715 99.8926 51.45 99.726 51.2362C99.4954 50.9051 99.2097 50.616 98.8814 50.3814C99.1464 50.3351 99.3933 50.2157 99.5941 50.0366C99.7949 49.8575 99.9416 49.6259 100.018 49.3678Z" fill="#FDBA45"/>
<path d="M110.066 47.0079C110.128 46.9158 110.184 46.8185 110.24 46.7264C110.283 46.6619 110.31 46.5887 110.321 46.5121C110.331 46.4356 110.324 46.3577 110.3 46.2843C110.275 46.2109 110.235 46.144 110.181 46.0884C110.128 46.0329 110.062 45.9902 109.99 45.9636L109.913 45.892C109.967 45.7677 109.974 45.6279 109.932 45.4989C109.891 45.3698 109.804 45.2603 109.688 45.1907C109.608 45.1506 109.521 45.1298 109.432 45.1298C109.343 45.1298 109.255 45.1506 109.176 45.1907C109.127 45.2026 109.081 45.2216 109.037 45.247C108.645 45.4955 108.345 45.866 108.183 46.3015C108.15 46.4192 108.158 46.5444 108.204 46.6574C108.25 46.7703 108.333 46.8648 108.439 46.926C108.499 46.9577 108.565 46.9784 108.633 46.9874C108.438 47.2421 108.279 47.523 108.162 47.8218C108.019 48.2109 108.418 48.5539 108.771 48.518L108.689 48.6307C108.382 49.0299 108.889 49.5674 109.314 49.4446C109.465 49.3943 109.604 49.3133 109.722 49.2067C109.84 49.1001 109.934 48.9702 110 48.8252C110.179 48.4976 110.353 48.1699 110.512 47.8372C110.552 47.7546 110.573 47.6635 110.571 47.5715C110.57 47.4794 110.546 47.3891 110.502 47.308C110.459 47.2269 110.397 47.1574 110.321 47.1052C110.245 47.053 110.158 47.0196 110.066 47.0079Z" fill="#FDBA45"/>
<path d="M97.9804 39.1093C97.9804 39.1093 98.1494 45.3852 97.7757 46.0711C97.402 46.7571 90.7729 49.5726 90.7729 49.5726L86.6776 44.4023L97.9804 39.1093Z" fill="#FF9A22"/>
<path d="M94.6069 28.3697C94.6069 28.3697 95.7741 30.9292 95.3236 31.8301C94.8731 32.7311 92.416 32.1168 92.416 32.1168" fill="#1B6333"/>
<path d="M94.8168 27.0694C94.8168 27.0694 94.8885 32.2396 92.7692 32.7976C90.6499 33.3555 89.5238 30.7499 89.5238 30.7499C89.5238 30.7499 89.0938 27.2588 89.7797 26.5268C90.4657 25.7947 93.6958 25.5951 94.8168 27.0694Z" fill="#FDBA45"/>
<path d="M95.6359 26.4961C95.6359 26.4961 94.2077 28.5437 93.3631 29.0556C92.5185 29.5675 91.5612 29.2757 91.2643 29.977C90.9674 30.6783 92.027 34.8349 91.0544 35.6079C90.0818 36.3809 88.1878 34.1387 87.3534 35.2393C86.519 36.3399 86.9694 38.3671 85.659 38.8226C84.3485 39.2782 82.8026 37.2409 84.0516 35.6233C85.3006 34.0057 85.4235 33.2122 84.7068 32.6798C83.637 31.8864 84.7427 28.9634 85.9917 28.4106C87.2408 27.8577 87.5786 25.0218 89.8259 24.3154C92.0731 23.6089 95.1496 24.8938 95.6359 26.4961Z" fill="#1B6333"/>
<path d="M97.4787 37.118C97.4787 40.012 97.4223 42.9127 97.3097 45.8203C97.3097 46.148 97.8216 46.148 97.8216 45.8203C97.9411 42.9264 97.9974 40.0256 97.9906 37.118C97.9906 37.0501 97.9636 36.985 97.9156 36.937C97.8676 36.889 97.8025 36.8621 97.7346 36.8621C97.6667 36.8621 97.6016 36.889 97.5536 36.937C97.5056 36.985 97.4787 37.0501 97.4787 37.118Z" fill="#F26250"/>
<path d="M96.8286 48.1546C95.1806 47.4037 93.7303 46.2789 92.5929 44.8696C91.4555 43.4603 90.6623 41.8053 90.2763 40.0358C90.2046 39.7134 89.7132 39.8516 89.7644 40.1741C90.1679 42.0097 90.9925 43.7263 92.1732 45.1886C93.3538 46.6509 94.8582 47.8187 96.5676 48.6C96.8849 48.7331 97.146 48.2928 96.8286 48.1546Z" fill="#F26250"/>
<defs>
<linearGradient id="paint0_linear_4_109" x1="88.4898" y1="129.88" x2="108.526" y2="111.794" gradientUnits="userSpaceOnUse">
<stop stop-color="#DAF2E9"/>
<stop offset="1" stop-color="#C4E0D1"/>
</linearGradient>
<linearGradient id="paint1_linear_4_109" x1="129.063" y1="110.53" x2="137.535" y2="99.0939" gradientUnits="userSpaceOnUse">
<stop stop-color="#DAF2E9"/>
<stop offset="1" stop-color="#C4E0D1"/>
</linearGradient>
<linearGradient id="paint2_linear_4_109" x1="36.1375" y1="106.66" x2="44.8705" y2="94.8707" gradientUnits="userSpaceOnUse">
<stop stop-color="#DAF2E9"/>
<stop offset="1" stop-color="#C4E0D1"/>
</linearGradient>
</defs>
</svg>
